<svg width="39" height="39" viewBox="0 0 39 39" xmlns="http://www.w3.org/2000/svg">
<path id="Vector" d="M13.4212 0.564453C12.4007 0.564453 11.4558 0.942406 10.7377 1.66052L1.81802 10.4668C1.1377 11.1849 0.721953 12.1298 0.721953 13.1503L0.646362 25.6605C0.646362 26.681 1.02432 27.6259 1.74243 28.344L10.5487 37.2637C11.2668 37.944 12.2117 38.3597 13.2322 38.3597L25.7424 38.4353C26.7629 38.4353 27.7078 38.0574 28.4259 37.3393L37.3456 28.533C38.0259 27.8148 38.4416 26.87 38.4416 25.8495L38.5172 13.3393C38.5172 12.3188 38.1393 11.3739 37.4212 10.6558L28.6149 1.73611C27.8968 1.05579 26.9519 0.640044 25.9314 0.640044L13.4212 0.564453ZM17.4653 14.5109C18.2968 15.3046 18.9771 16.1739 19.5818 17.081C20.1865 16.1739 20.8668 15.3046 21.6983 14.5109C23.1723 13.1881 25.1377 12.2054 27.5944 12.2054C31.7897 12.2054 35.229 15.5314 35.229 19.6133C35.229 23.6952 31.7897 26.9834 27.5944 26.9834C25.2511 27.0967 23.3613 26.1896 21.9629 24.9046C21.018 24.0353 20.2621 23.0148 19.5818 21.9566C18.9015 23.0148 18.1456 24.0353 17.2007 24.9046C15.8023 26.1896 13.9125 27.0967 11.5692 26.9834C7.37392 26.9834 3.93455 23.6952 3.93455 19.6133C3.93455 15.5314 7.37392 12.2054 11.5692 12.2054C14.0259 12.2054 15.9912 13.1881 17.4653 14.5109ZM6.54243 19.6133C6.54243 22.2211 8.73455 24.3755 11.5692 24.3755H11.607C13.3456 24.4511 14.4038 23.9597 15.4243 23.0148C16.3692 22.1456 17.2007 20.8983 18.0322 19.4999C17.3141 18.3282 16.5582 17.2322 15.6889 16.4385C14.5928 15.418 13.4212 14.8133 11.5692 14.8133C8.73455 14.8133 6.54243 16.9676 6.54243 19.6133ZM23.4747 16.4385C22.6054 17.2322 21.8495 18.3282 21.1314 19.4999C21.9629 20.8983 22.7944 22.1456 23.7393 23.0148C24.7597 23.9597 25.818 24.4511 27.5566 24.3755H27.5944C30.429 24.3755 32.6212 22.2211 32.6212 19.6133C32.6212 16.9676 30.429 14.8133 27.5944 14.8133C25.7424 14.8133 24.5708 15.418 23.4747 16.4385ZM27.9723 17.2322V18.6684H29.3708V20.1046H27.9723V21.5408H26.9141H26.4983V20.1046H25.0621V18.6684H26.4983V17.2322H27.9723ZM14.366 18.8196V19.9534H9.944H9.1503V18.8196H14.366Z" />
</svg>
