<svg width="53" height="54" viewBox="0 0 53 54" fill="none" xmlns="http://www.w3.org/2000/svg">
<path id="Vector" d="M21.7461 0.791011C23.7852 1.13085 25.168 3.06445 24.8281 5.10351L23.6797 11.9941H34.8242L36.1719 3.87304C36.5117 1.83398 38.4453 0.451167 40.4844 0.791011C42.5234 1.13085 43.9063 3.06445 43.5664 5.10351L42.4297 11.9941H49.25C51.3242 11.9941 53 13.6699 53 15.7441C53 17.8184 51.3242 19.4941 49.25 19.4941H41.1758L38.6797 34.4941H45.5C47.5742 34.4941 49.25 36.1699 49.25 38.2441C49.25 40.3184 47.5742 41.9941 45.5 41.9941H37.4258L36.0781 50.1152C35.7383 52.1543 33.8047 53.5371 31.7656 53.1973C29.7266 52.8574 28.3437 50.9238 28.6836 48.8848L29.832 42.0059H18.6758L17.3281 50.1269C16.9883 52.166 15.0547 53.5488 13.0156 53.209C10.9766 52.8691 9.59375 50.9355 9.93359 48.8965L11.0703 41.9941H4.25C2.17578 41.9941 0.5 40.3184 0.5 38.2441C0.5 36.1699 2.17578 34.4941 4.25 34.4941H12.3242L14.8203 19.4941H8C5.92578 19.4941 4.25 17.8184 4.25 15.7441C4.25 13.6699 5.92578 11.9941 8 11.9941H16.0742L17.4219 3.87304C17.7617 1.83398 19.6953 0.451167 21.7344 0.791011H21.7461ZM22.4258 19.4941L19.9297 34.4941H31.0742L33.5703 19.4941H22.4258Z" fill="white"/>
</svg>
