<svg width="181" height="188" viewBox="0 0 181 188" fill="none" xmlns="http://www.w3.org/2000/svg">
<g id="Chr_Icon">
<rect id="Rectangle 1" x="0.498535" y="0.943359" width="180.17" height="186.119" rx="33.9943" fill="black"/>
<path id="Vector" d="M84 49.8398L87.125 45.6797C87.9062 44.625 89.1562 44 90.4648 44C92.75 44 94.625 45.875 94.625 48.1602V52.4961C94.625 55.0547 95.6797 57.5156 97.5351 59.2734L114.078 75.0547C123.609 84.1562 129 96.7734 129 109.957C129 128.766 113.766 144 94.957 144H91.5C70.7969 144 54 127.203 54 106.5V105.758C54 96.2266 57.7891 87.0859 64.5273 80.3477L65.2109 79.6641C66.0312 78.8438 67.1641 78.375 68.3359 78.375C70.7773 78.375 72.75 80.3477 72.75 82.7891V100.25C72.75 107.145 78.3555 112.75 85.25 112.75C92.1445 112.75 97.75 107.145 97.75 100.25V99.4883C97.75 95.9727 96.3437 92.5938 93.8633 90.1133L86.3242 82.5742C81.6367 77.8867 79 71.5 79 64.8594C79 59.4492 80.7578 54.1562 84 49.8398Z" fill="white"/>
</g>
</svg>
