<svg width="61" height="33" viewBox="0 0 61 33" xmlns="http://www.w3.org/2000/svg">
<g id="Vector">
<path id="Vector_2" d="M17.2635 21.7211H19.9582V32.2474H17.2635V21.7211ZM41.3476 24.7527C41.2634 24.6685 40.4213 24.1632 39.0739 24.1632C37.3897 24.1632 36.1265 25.3422 36.1265 26.9422C36.1265 28.5421 37.3055 29.7211 39.0739 29.7211C40.337 29.7211 41.1791 29.2158 41.3476 29.1316V31.9948C41.0107 32.079 40.0844 32.3316 38.9055 32.3316C35.8739 32.3316 33.2634 30.3106 33.2634 26.8579C33.2634 23.7422 35.6213 21.3843 38.9055 21.3843C40.1686 21.3843 41.0949 21.7211 41.3476 21.7211V24.7527ZM13.5582 24.7527C13.474 24.6685 12.6319 24.1632 11.2846 24.1632C9.60036 24.1632 8.3372 25.3422 8.3372 26.9422C8.3372 28.5421 9.51615 29.7211 11.2846 29.7211C12.5477 29.7211 13.3898 29.2158 13.5582 29.1316V31.9948C13.2214 32.079 12.2951 32.3316 11.1161 32.3316C8.16878 32.3316 5.47406 30.3106 5.47406 26.8579C5.47406 23.7422 7.83194 21.3843 11.1161 21.3843C12.3793 21.3843 13.3056 21.7211 13.5582 21.7211V24.7527ZM55.2422 27.0264C55.2422 30.0579 52.8844 32.5 49.6844 32.5C46.4844 32.5 44.1265 30.0579 44.1265 27.0264C44.1265 23.9948 46.4844 21.5527 49.6844 21.5527C52.9686 21.5527 55.2422 23.9948 55.2422 27.0264ZM49.6844 24.2474C48.0844 24.2474 46.9054 25.5106 46.9054 27.0264C46.9054 28.5421 48.0844 29.8053 49.6844 29.8053C51.2844 29.8053 52.4633 28.5421 52.4633 27.0264C52.4633 25.5106 51.2844 24.2474 49.6844 24.2474ZM29.9792 24.1632C29.9792 24.1632 28.8003 23.8264 27.8739 23.8264C26.7792 23.8264 26.1897 24.1632 26.1897 24.6685C26.1897 25.3422 26.9476 25.5106 27.3687 25.679L28.1266 25.9316C29.8108 26.5211 30.6529 27.7 30.6529 28.9632C30.6529 31.5737 28.295 32.5 26.274 32.5C24.8424 32.5 23.495 32.2474 23.4108 32.2474V29.8053C23.6634 29.8895 24.7582 30.2264 25.9371 30.2264C27.2845 30.2264 27.8739 29.8053 27.8739 29.2158C27.8739 28.7106 27.3687 28.3737 26.695 28.2053C26.5266 28.1211 26.274 28.0369 26.1055 28.0369C24.5898 27.5316 23.4108 26.6895 23.4108 24.9211C23.4108 22.9843 24.9266 21.6369 27.3687 21.6369C28.6318 21.6369 29.895 21.9737 29.9792 21.9737V24.1632Z" />
<path id="Vector_3" d="M2.69511 10.4368C2.69737 10.2593 2.66406 10.083 2.59715 9.91855C2.53024 9.75406 2.43108 9.60462 2.30551 9.47906C2.17995 9.35349 2.03051 9.25433 1.86602 9.18742C1.70153 9.12051 1.52531 9.0872 1.34774 9.08946C1.17018 9.0872 0.993958 9.12051 0.829467 9.18742C0.664976 9.25433 0.515542 9.35349 0.389975 9.47906C0.264407 9.60462 0.165246 9.75406 0.0983361 9.91855C0.0314259 10.083 -0.00187961 10.2593 0.000382637 10.4368V13.2158C-0.00187961 13.3933 0.0314259 13.5696 0.0983361 13.734C0.165246 13.8985 0.264407 14.048 0.389975 14.1735C0.515542 14.2991 0.664976 14.3983 0.829467 14.4652C0.993958 14.5321 1.17018 14.5654 1.34774 14.5631C1.52531 14.5654 1.70153 14.5321 1.86602 14.4652C2.03051 14.3983 2.17995 14.2991 2.30551 14.1735C2.43108 14.048 2.53024 13.8985 2.59715 13.734C2.66406 13.5696 2.69737 13.3933 2.69511 13.2158V10.4368Z" />
<path id="Vector_4" d="M9.93719 6.81588C9.93945 6.63831 9.90615 6.46209 9.83924 6.2976C9.77233 6.13311 9.67317 5.98367 9.5476 5.85811C9.42203 5.73254 9.2726 5.63338 9.10811 5.56647C8.94361 5.49956 8.76739 5.46625 8.58983 5.46851C7.83194 5.46851 7.32668 6.05798 7.32668 6.81588V13.2159C7.32441 13.3934 7.35772 13.5696 7.42463 13.7341C7.49154 13.8986 7.5907 14.0481 7.71627 14.1736C7.84184 14.2992 7.99127 14.3984 8.15576 14.4653C8.32025 14.5322 8.49647 14.5655 8.67404 14.5632C8.8516 14.5655 9.02782 14.5322 9.19232 14.4653C9.35681 14.3984 9.50624 14.2992 9.63181 14.1736C9.75737 14.0481 9.85654 13.8986 9.92345 13.7341C9.99036 13.5696 10.0237 13.3934 10.0214 13.2159V6.81588H9.93719ZM17.2635 1.84747C17.2657 1.66991 17.2324 1.49369 17.1655 1.32919C17.0986 1.1647 16.9994 1.01527 16.8739 0.889701C16.7483 0.764133 16.5989 0.664972 16.4344 0.598062C16.2699 0.531151 16.0937 0.497846 15.9161 0.500108C15.7385 0.497846 15.5623 0.531151 15.3978 0.598062C15.2333 0.664972 15.0839 0.764133 14.9583 0.889701C14.8328 1.01527 14.7336 1.1647 14.6667 1.32919C14.5998 1.49369 14.5665 1.66991 14.5687 1.84747V15.8264C14.5665 16.0039 14.5998 16.1802 14.6667 16.3447C14.7336 16.5091 14.8328 16.6586 14.9583 16.7841C15.0839 16.9097 15.2333 17.0089 15.3978 17.0758C15.5623 17.1427 15.7385 17.176 15.9161 17.1737C16.0937 17.176 16.2699 17.1427 16.4344 17.0758C16.5989 17.0089 16.7483 16.9097 16.8739 16.7841C16.9994 16.6586 17.0986 16.5091 17.1655 16.3447C17.2324 16.1802 17.2657 16.0039 17.2635 15.8264V1.84747ZM24.5055 6.81588C24.5078 6.63831 24.4745 6.46209 24.4076 6.2976C24.3407 6.13311 24.2415 5.98367 24.1159 5.85811C23.9904 5.73254 23.8409 5.63338 23.6765 5.56647C23.512 5.49956 23.3357 5.46625 23.1582 5.46851C22.9806 5.46625 22.8044 5.49956 22.6399 5.56647C22.4754 5.63338 22.326 5.73254 22.2004 5.85811C22.0748 5.98367 21.9757 6.13311 21.9088 6.2976C21.8419 6.46209 21.8086 6.63831 21.8108 6.81588V13.2159C21.8086 13.3934 21.8419 13.5696 21.9088 13.7341C21.9757 13.8986 22.0748 14.0481 22.2004 14.1736C22.326 14.2992 22.4754 14.3984 22.6399 14.4653C22.8044 14.5322 22.9806 14.5655 23.1582 14.5632C23.3357 14.5655 23.512 14.5322 23.6765 14.4653C23.8409 14.3984 23.9904 14.2992 24.1159 14.1736C24.2415 14.0481 24.3407 13.8986 24.4076 13.7341C24.4745 13.5696 24.5078 13.3934 24.5055 13.2159V6.81588Z" />
<path id="Vector_5" d="M31.7476 10.4368C31.7499 10.2593 31.7166 10.083 31.6496 9.91855C31.5827 9.75406 31.4836 9.60462 31.358 9.47906C31.2324 9.35349 31.083 9.25433 30.9185 9.18742C30.754 9.12051 30.5778 9.0872 30.4002 9.08946C30.2227 9.0872 30.0464 9.12051 29.882 9.18742C29.7175 9.25433 29.568 9.35349 29.4425 9.47906C29.3169 9.60462 29.2177 9.75406 29.1508 9.91855C29.0839 10.083 29.0506 10.2593 29.0529 10.4368V13.2158C29.0506 13.3933 29.0839 13.5696 29.1508 13.734C29.2177 13.8985 29.3169 14.048 29.4425 14.1735C29.568 14.2991 29.7175 14.3983 29.882 14.4652C30.0464 14.5321 30.2227 14.5654 30.4002 14.5631C30.5778 14.5654 30.754 14.5321 30.9185 14.4652C31.083 14.3983 31.2324 14.2991 31.358 14.1735C31.4836 14.048 31.5827 13.8985 31.6496 13.734C31.7166 13.5696 31.7499 13.3933 31.7476 13.2158V10.4368Z" />
<path id="Vector_6" d="M38.9897 6.81577C38.9897 6.45843 38.8477 6.11572 38.595 5.86304C38.3424 5.61036 37.9997 5.4684 37.6423 5.4684C37.285 5.4684 36.9423 5.61036 36.6896 5.86304C36.4369 6.11572 36.295 6.45843 36.295 6.81577V13.2157C36.295 13.5731 36.4369 13.9158 36.6896 14.1685C36.9423 14.4212 37.285 14.5631 37.6423 14.5631C37.9997 14.5631 38.3424 14.4212 38.595 14.1685C38.8477 13.9158 38.9897 13.5731 38.9897 13.2157V6.81577ZM46.2317 1.84736C46.2317 1.49002 46.0898 1.14731 45.8371 0.894634C45.5844 0.641954 45.2417 0.5 44.8844 0.5C44.527 0.5 44.1843 0.641954 43.9317 0.894634C43.679 1.14731 43.537 1.49002 43.537 1.84736V15.8263C43.537 16.1836 43.679 16.5263 43.9317 16.779C44.1843 17.0317 44.527 17.1736 44.8844 17.1736C45.2417 17.1736 45.5844 17.0317 45.8371 16.779C46.0898 16.5263 46.2317 16.1836 46.2317 15.8263V1.84736ZM53.4738 6.81577C53.4738 6.63883 53.439 6.46362 53.3713 6.30015C53.3035 6.13668 53.2043 5.98815 53.0792 5.86304C52.9541 5.73792 52.8055 5.63868 52.6421 5.57097C52.4786 5.50325 52.3034 5.4684 52.1265 5.4684C51.9495 5.4684 51.7743 5.50325 51.6108 5.57097C51.4474 5.63868 51.2988 5.73792 51.1737 5.86304C51.0486 5.98815 50.9494 6.13668 50.8817 6.30015C50.8139 6.46362 50.7791 6.63883 50.7791 6.81577V13.2157C50.7791 13.3927 50.8139 13.5679 50.8817 13.7314C50.9494 13.8948 51.0486 14.0434 51.1737 14.1685C51.2988 14.2936 51.4474 14.3928 51.6108 14.4605C51.7743 14.5283 51.9495 14.5631 52.1265 14.5631C52.3034 14.5631 52.4786 14.5283 52.6421 14.4605C52.8055 14.3928 52.9541 14.2936 53.0792 14.1685C53.2043 14.0434 53.3035 13.8948 53.3713 13.7314C53.439 13.5679 53.4738 13.3927 53.4738 13.2157V6.81577ZM60.7159 10.4368C60.7159 10.0795 60.5739 9.73676 60.3213 9.48408C60.0686 9.2314 59.7259 9.08945 59.3685 9.08945C59.0112 9.08945 58.6685 9.2314 58.4158 9.48408C58.1631 9.73676 58.0212 10.0795 58.0212 10.4368V13.2157C58.0212 13.5731 58.1631 13.9158 58.4158 14.1685C58.6685 14.4212 59.0112 14.5631 59.3685 14.5631C59.7259 14.5631 60.0686 14.4212 60.3213 14.1685C60.5739 13.9158 60.7159 13.5731 60.7159 13.2157V10.4368Z" />
</g>
</svg>
