<svg width="50" height="50" viewBox="0 0 31 33" xmlns="http://www.w3.org/2000/svg">
<path id="Vector" d="M30.0774 10.9157C30.2774 11.4594 30.1086 12.0657 29.6774 12.4532L26.9711 14.9157C27.0399 15.4344 27.0774 15.9657 27.0774 16.5032C27.0774 17.0407 27.0399 17.5719 26.9711 18.0907L29.6774 20.5532C30.1086 20.9407 30.2774 21.5469 30.0774 22.0907C29.8024 22.8344 29.4711 23.5469 29.0899 24.2344L28.7961 24.7407C28.3836 25.4282 27.9211 26.0782 27.4149 26.6907C27.0461 27.1407 26.4336 27.2907 25.8836 27.1157L22.4024 26.0094C21.5649 26.6532 20.6399 27.1907 19.6524 27.5969L18.8711 31.1657C18.7461 31.7344 18.3086 32.1844 17.7336 32.2782C16.8711 32.4219 15.9836 32.4969 15.0774 32.4969C14.1711 32.4969 13.2836 32.4219 12.4211 32.2782C11.8461 32.1844 11.4086 31.7344 11.2836 31.1657L10.5024 27.5969C9.51486 27.1907 8.58986 26.6532 7.75236 26.0094L4.27736 27.1219C3.72736 27.2969 3.11486 27.1407 2.74611 26.6969C2.23986 26.0844 1.77736 25.4344 1.36486 24.7469L1.07111 24.2407C0.68986 23.5532 0.35861 22.8407 0.0836098 22.0969C-0.11639 21.5532 0.0523598 20.9469 0.48361 20.5594L3.18986 18.0969C3.12111 17.5719 3.08361 17.0407 3.08361 16.5032C3.08361 15.9657 3.12111 15.4344 3.18986 14.9157L0.48361 12.4532C0.0523598 12.0657 -0.11639 11.4594 0.0836098 10.9157C0.35861 10.1719 0.68986 9.45942 1.07111 8.77192L1.36486 8.26567C1.77736 7.57817 2.23986 6.92817 2.74611 6.31567C3.11486 5.86567 3.72736 5.71567 4.27736 5.89067L7.75861 6.99692C8.59611 6.35317 9.52111 5.81567 10.5086 5.40942L11.2899 1.84067C11.4149 1.27192 11.8524 0.821924 12.4274 0.728174C13.2899 0.578174 14.1774 0.503174 15.0836 0.503174C15.9899 0.503174 16.8774 0.578174 17.7399 0.721924C18.3149 0.815674 18.7524 1.26567 18.8774 1.83442L19.6586 5.40317C20.6461 5.80942 21.5711 6.34692 22.4086 6.99067L25.8899 5.88442C26.4399 5.70942 27.0524 5.86567 27.4211 6.30942C27.9274 6.92192 28.3899 7.57192 28.8024 8.25942L29.0961 8.76567C29.4774 9.45317 29.8086 10.1657 30.0836 10.9094L30.0774 10.9157ZM15.0836 21.5032C16.4097 21.5032 17.6815 20.9764 18.6191 20.0387C19.5568 19.101 20.0836 17.8293 20.0836 16.5032C20.0836 15.1771 19.5568 13.9053 18.6191 12.9676C17.6815 12.03 16.4097 11.5032 15.0836 11.5032C13.7575 11.5032 12.4858 12.03 11.5481 12.9676C10.6104 13.9053 10.0836 15.1771 10.0836 16.5032C10.0836 17.8293 10.6104 19.101 11.5481 20.0387C12.4858 20.9764 13.7575 21.5032 15.0836 21.5032Z"/>
</svg>
