<svg width="33" height="33" viewBox="0 0 33 33" xmlns="http://www.w3.org/2000/svg">
<path id="Vector" d="M13.3735 0.531291C14.6159 0.738352 15.4584 1.91646 15.2513 3.15883L14.5516 7.35717H21.3418L22.1629 2.40912C22.37 1.16675 23.5481 0.324229 24.7904 0.531291C26.0328 0.738352 26.8753 1.91646 26.6683 3.15883L25.9757 7.35717H30.1312C31.395 7.35717 32.416 8.3782 32.416 9.64199C32.416 10.9058 31.395 11.9268 30.1312 11.9268H25.2117L23.6909 21.0661H27.8464C29.1102 21.0661 30.1312 22.0871 30.1312 23.3509C30.1312 24.6147 29.1102 25.6357 27.8464 25.6357H22.9269L22.1058 30.5837C21.8987 31.8261 20.7206 32.6686 19.4782 32.4616C18.2359 32.2545 17.3934 31.0764 17.6004 29.834L18.3001 25.6428H11.5028L10.6817 30.5909C10.4746 31.8332 9.29653 32.6758 8.05416 32.4687C6.8118 32.2616 5.96927 31.0835 6.17633 29.8412L6.86892 25.6357H2.71341C1.44962 25.6357 0.428589 24.6147 0.428589 23.3509C0.428589 22.0871 1.44962 21.0661 2.71341 21.0661H7.6329L9.15373 11.9268H4.99822C3.73443 11.9268 2.71341 10.9058 2.71341 9.64199C2.71341 8.3782 3.73443 7.35717 4.99822 7.35717H9.91772L10.7388 2.40912C10.9459 1.16675 12.124 0.324229 13.3664 0.531291H13.3735ZM13.7876 11.9268L12.2668 21.0661H19.057L20.5778 11.9268H13.7876Z"/>
</svg>
