<svg width="35" height="36" viewBox="0 0 35 36" fill="none" xmlns="http://www.w3.org/2000/svg">
<g id="Group">
<path id="Vector" d="M25.9103 9.33301H8.64959V26.5938H25.9103V9.33301Z" fill="black"/>
<path id="Vector_2" d="M8.64959 17.9634C13.416 17.9634 17.28 14.0994 17.28 9.33301C17.28 4.56659 13.416 0.702637 8.64959 0.702637C3.88316 0.702637 0.0192108 4.56659 0.0192108 9.33301C0.0192108 14.0994 3.88316 17.9634 8.64959 17.9634Z" fill="#868686"/>
<g id="Group_2">
<path id="Vector_3" d="M8.63039 17.939C13.3968 17.939 17.2608 14.075 17.2608 9.3086C17.2608 4.54217 13.3968 0.678223 8.63039 0.678223C3.86397 0.678223 1.52588e-05 4.54217 1.52588e-05 9.3086C1.52588e-05 14.075 3.86397 17.939 8.63039 17.939Z" fill="#868686"/>
<path id="Vector_4" d="M8.69173 17.9151C13.4471 17.9021 17.2996 14.0453 17.2996 9.28615C17.2996 4.52746 13.4475 0.669204 8.69221 0.656738L8.69173 17.9151Z" fill="white"/>
<path id="Vector_5" d="M17.2593 9.28606C17.2468 4.53025 13.389 0.678223 8.63036 0.678223C3.87166 0.678223 0.0138852 4.53025 0.00141907 9.28606H17.2593Z" fill="black"/>
</g>
<g id="Group_3">
<path id="Vector_6" d="M25.9487 17.9404C30.7152 17.9404 34.5791 14.0765 34.5791 9.31006C34.5791 4.54364 30.7152 0.679688 25.9487 0.679688C21.1823 0.679688 17.3184 4.54364 17.3184 9.31006C17.3184 14.0765 21.1823 17.9404 25.9487 17.9404Z" fill="#868686"/>
<path id="Vector_7" d="M17.3202 9.31006C17.3332 14.0654 21.1895 17.9174 25.9487 17.9174C30.7074 17.9174 34.5656 14.0654 34.5781 9.31006H17.3202Z" fill="white"/>
<path id="Vector_8" d="M25.9487 17.939C30.7045 17.9261 34.5566 14.0688 34.5566 9.31008C34.5566 4.55139 30.7045 0.69313 25.9492 0.680664L25.9487 17.939Z" fill="black"/>
</g>
<g id="Group_4">
<path id="Vector_9" d="M25.9487 35.2002C30.7152 35.2002 34.5791 31.3363 34.5791 26.5698C34.5791 21.8034 30.7152 17.9395 25.9487 17.9395C21.1823 17.9395 17.3184 21.8034 17.3184 26.5698C17.3184 31.3363 21.1823 35.2002 25.9487 35.2002Z" fill="#868686"/>
<path id="Vector_10" d="M25.9267 17.9185C21.1713 17.9314 17.3188 21.7887 17.3188 26.5474C17.3188 31.3061 21.1713 35.1643 25.9267 35.1773V17.9185Z" fill="white"/>
<path id="Vector_11" d="M17.3193 26.5698C17.3327 31.3256 21.19 35.1772 25.9492 35.1772C30.7069 35.1772 34.5652 31.3256 34.5781 26.5698H17.3193Z" fill="black"/>
</g>
<g id="Group_5">
<path id="Vector_12" d="M8.68796 35.2366C13.4544 35.2366 17.3183 31.3726 17.3183 26.6062C17.3183 21.8398 13.4544 17.9758 8.68796 17.9758C3.92154 17.9758 0.0575867 21.8398 0.0575867 26.6062C0.0575867 31.3726 3.92154 35.2366 8.68796 35.2366Z" fill="#868686"/>
<path id="Vector_13" d="M17.3174 26.5597C17.3044 21.8039 13.4471 17.9519 8.68843 17.9519C3.92926 17.9519 0.0714783 21.8039 0.0585327 26.5593L17.3174 26.5597Z" fill="white"/>
<path id="Vector_14" d="M8.66543 17.9553C3.90961 17.9683 0.0575867 21.8256 0.0575867 26.5843C0.0575867 31.343 3.90961 35.2007 8.66543 35.2137V17.9553Z" fill="black"/>
</g>
</g>
</svg>
