<svg width="29" height="29" viewBox="0 0 29 29" xmlns="http://www.w3.org/2000/svg">
<path id="Vector" d="M25.4286 0.5H3.42859C1.77234 0.5 0.428589 1.84375 0.428589 3.5V25.5C0.428589 27.1562 1.77234 28.5 3.42859 28.5H25.4286C27.0848 28.5 28.4286 27.1562 28.4286 25.5V3.5C28.4286 1.84375 27.0848 0.5 25.4286 0.5ZM15.6661 22.3375C15.6661 25.0625 14.0661 26.3062 11.7348 26.3062C9.62859 26.3062 8.40984 25.2188 7.78484 23.9L9.92859 22.6063C10.3411 23.3375 10.7161 23.9562 11.6223 23.9562C12.4848 23.9562 13.0348 23.6187 13.0348 22.3V13.3562H15.6661V22.3375ZM21.8911 26.3062C19.4473 26.3062 17.8661 25.1437 17.0973 23.6187L19.2411 22.3813C19.8036 23.3 20.5411 23.9813 21.8348 23.9813C22.9223 23.9813 23.6223 23.4375 23.6223 22.6812C23.6223 21.7812 22.9098 21.4625 21.7036 20.9312L21.0473 20.65C19.1473 19.8438 17.8911 18.825 17.8911 16.6812C17.8911 14.7062 19.3973 13.2063 21.7411 13.2063C23.4161 13.2063 24.6161 13.7875 25.4786 15.3125L23.4286 16.625C22.9786 15.8188 22.4911 15.5 21.7348 15.5C20.9661 15.5 20.4786 15.9875 20.4786 16.625C20.4786 17.4125 20.9661 17.7313 22.0973 18.225L22.7536 18.5063C24.9911 19.4625 26.2473 20.4437 26.2473 22.6437C26.2473 25.0062 24.3848 26.3062 21.8911 26.3062Z" />
</svg>
