<svg width="28" height="29" viewBox="0 0 23 33" xmlns="http://www.w3.org/2000/svg">
<path id="Vector" d="M0.715698 6.48702C0.715698 3.18048 3.39619 0.5 6.70276 0.5H16.9758C20.2823 0.5 22.9628 3.18048 22.9628 6.48702C22.9628 8.58075 21.8881 10.4235 20.2601 11.4936C21.8881 12.5637 22.9628 14.4064 22.9628 16.5001C22.9628 19.8067 20.2823 22.4872 16.9758 22.4872H16.8458C15.2956 22.4872 13.8831 21.8981 12.8198 20.9315V26.4479C12.8198 29.7986 10.0693 32.5 6.73501 32.5C3.4367 32.5 0.715698 29.8277 0.715698 26.5129C0.715698 24.4193 1.79035 22.5767 3.41815 21.5066C1.79035 20.4364 0.715698 18.5938 0.715698 16.5001C0.715698 14.4064 1.79045 12.5637 3.41835 11.4936C1.79045 10.4235 0.715698 8.58075 0.715698 6.48702ZM10.8587 12.4742H6.70276C4.47927 12.4742 2.67681 14.2767 2.67681 16.5001C2.67681 18.715 4.46537 20.5121 6.67701 20.526C6.68557 20.5259 6.69414 20.5259 6.70276 20.5259H10.8587V12.4742ZM12.8198 16.5001C12.8198 18.7236 14.6223 20.5261 16.8458 20.5261H16.9758C19.1993 20.5261 21.0017 18.7236 21.0017 16.5001C21.0017 14.2767 19.1993 12.4742 16.9758 12.4742H16.8458C14.6223 12.4742 12.8198 14.2767 12.8198 16.5001ZM6.70276 22.4872C6.69414 22.4872 6.68557 22.4871 6.67701 22.4871C4.46537 22.5009 2.67681 24.2981 2.67681 26.5129C2.67681 28.7283 4.50335 30.5389 6.73501 30.5389C9.00264 30.5389 10.8587 28.6991 10.8587 26.4479V22.4872H6.70276ZM6.70276 2.46111C4.47927 2.46111 2.67681 4.26358 2.67681 6.48702C2.67681 8.7105 4.47927 10.5129 6.70276 10.5129H10.8587V2.46111H6.70276ZM12.8198 10.5129H16.9758C19.1993 10.5129 21.0017 8.7105 21.0017 6.48702C21.0017 4.26358 19.1993 2.46111 16.9758 2.46111H12.8198V10.5129Z"/>
</svg>
