<svg width="28" height="29" viewBox="0 0 28 29" xmlns="http://www.w3.org/2000/svg">
<path id="Vector" d="M27.4719 13.2532L15.25 1.02816C14.9116 0.690125 14.4529 0.500244 13.9747 0.500244C13.4964 0.500244 13.0377 0.690125 12.6994 1.02816L10.1581 3.56754L13.3781 6.78754C15.0694 6.21629 16.6706 7.83566 16.09 9.51754L19.1937 12.6213C21.3331 11.8838 23.0175 14.5588 21.4106 16.1644C19.755 17.82 17.0225 15.985 17.9106 13.8307L15.0137 10.9375V18.5532C16.595 19.3369 16.405 21.1688 15.5812 21.9907C15.1788 22.3929 14.6331 22.6188 14.0641 22.6188C13.495 22.6188 12.9493 22.3929 12.5469 21.9907C11.4487 20.8907 11.855 19.0588 13.25 18.4907V10.8032C11.95 10.2713 11.7125 8.88191 12.085 7.99066L8.91061 4.81254L0.528114 13.1963C0.189925 13.5345 -6.10352e-05 13.9933 -6.10352e-05 14.4716C-6.10352e-05 14.9499 0.189925 15.4087 0.528114 15.7469L12.7537 27.9719C13.092 28.3099 13.5506 28.4998 14.0287 28.4998C14.5069 28.4998 14.9655 28.3099 15.3037 27.9719L27.4719 15.8038C27.8101 15.4655 28 15.0068 28 14.5285C28 14.0502 27.8101 13.5914 27.4719 13.2532Z" />
</svg>
