<svg width="59" height="60" viewBox="0 0 59 60" xmlns="http://www.w3.org/2000/svg">
<g id="Github" clip-path="url(#clip0_2_17)">
<path id="Vector" d="M20.3164 46.5703C20.3164 46.8047 20.0469 46.9922 19.707 46.9922C19.3203 47.0273 19.0508 46.8398 19.0508 46.5703C19.0508 46.3359 19.3203 46.1484 19.6602 46.1484C20.0117 46.1133 20.3164 46.3008 20.3164 46.5703ZM16.6719 46.0429C16.5898 46.2773 16.8242 46.5468 17.1758 46.6172C17.4805 46.7343 17.832 46.6172 17.9023 46.3828C17.9727 46.1484 17.75 45.8789 17.3984 45.7734C17.0938 45.6914 16.7539 45.8086 16.6719 46.0429ZM21.8516 45.8437C21.5117 45.9258 21.2773 46.1484 21.3125 46.4179C21.3477 46.6523 21.6523 46.8047 22.0039 46.7226C22.3438 46.6406 22.5781 46.4179 22.543 46.1836C22.5078 45.9609 22.1914 45.8086 21.8516 45.8437ZM29.5625 0.9375C13.3086 0.9375 0.875 13.2773 0.875 29.5312C0.875 42.5273 9.05469 53.6484 20.7383 57.5625C22.2383 57.832 22.7656 56.9062 22.7656 56.1445C22.7656 55.4179 22.7305 51.4101 22.7305 48.9492C22.7305 48.9492 14.5273 50.707 12.8047 45.457C12.8047 45.457 11.4687 42.0469 9.54688 41.1679C9.54688 41.1679 6.86328 39.3281 9.73437 39.3633C9.73437 39.3633 12.6523 39.5976 14.2578 42.3867C16.8242 46.9101 21.125 45.6094 22.8008 44.8359C23.0703 42.9609 23.832 41.6601 24.6758 40.8867C18.125 40.1601 11.5156 39.2109 11.5156 27.9375C11.5156 24.7148 12.4063 23.0976 14.2813 21.0351C13.9766 20.2734 12.9805 17.1328 14.5859 13.0781C17.0352 12.3164 22.6719 16.2422 22.6719 16.2422C25.0156 15.5859 27.5352 15.2461 30.0313 15.2461C32.5273 15.2461 35.0469 15.5859 37.3906 16.2422C37.3906 16.2422 43.0273 12.3047 45.4766 13.0781C47.082 17.1445 46.0859 20.2734 45.7813 21.0351C47.6563 23.1094 48.8047 24.7265 48.8047 27.9375C48.8047 39.2461 41.9023 40.1484 35.3516 40.8867C36.4297 41.8125 37.3438 43.5703 37.3438 46.3242C37.3438 50.2734 37.3086 55.1601 37.3086 56.1211C37.3086 56.8828 37.8477 57.8086 39.3359 57.539C51.0547 53.6484 59 42.5273 59 29.5312C59 13.2773 45.8164 0.9375 29.5625 0.9375ZM12.2656 41.3554C12.1133 41.4726 12.1484 41.7422 12.3477 41.9648C12.5352 42.1523 12.8047 42.2344 12.957 42.082C13.1094 41.9648 13.0742 41.6953 12.875 41.4726C12.6875 41.2851 12.418 41.2031 12.2656 41.3554ZM11 40.4062C10.918 40.5586 11.0352 40.7461 11.2695 40.8633C11.457 40.9804 11.6914 40.9453 11.7734 40.7812C11.8555 40.6289 11.7383 40.4414 11.5039 40.3242C11.2695 40.2539 11.082 40.289 11 40.4062ZM14.7969 44.5781C14.6094 44.7304 14.6797 45.082 14.9492 45.3047C15.2187 45.5742 15.5586 45.6094 15.7109 45.4219C15.8633 45.2695 15.793 44.9179 15.5586 44.6953C15.3008 44.4258 14.9492 44.3906 14.7969 44.5781ZM13.4609 42.8554C13.2734 42.9726 13.2734 43.2773 13.4609 43.5469C13.6484 43.8164 13.9648 43.9336 14.1172 43.8164C14.3047 43.664 14.3047 43.3594 14.1172 43.0898C13.9531 42.8203 13.6484 42.7031 13.4609 42.8554Z"/>
</g>
<defs>
<clipPath id="clip0_2_17">
<rect width="58.125" height="60" transform="translate(0.875)"/>
</clipPath>
</defs>
</svg>
