<svg width="50" height="50" viewBox="0 0 40 33" xmlns="http://www.w3.org/2000/svg">
<path id="Vector" d="M24.5484 0.574965C23.4859 0.268715 22.3797 0.887465 22.0734 1.94997L14.0734 29.95C13.7672 31.0125 14.3859 32.1187 15.4484 32.425C16.5109 32.7312 17.6172 32.1125 17.9234 31.05L25.9234 3.04996C26.2297 1.98746 25.6109 0.881215 24.5484 0.574965ZM29.5859 8.08121C28.8047 8.86246 28.8047 10.1312 29.5859 10.9125L35.1672 16.5L29.5797 22.0875C28.7984 22.8687 28.7984 24.1375 29.5797 24.9187C30.3609 25.7 31.6297 25.7 32.4109 24.9187L39.4109 17.9187C40.1922 17.1375 40.1922 15.8687 39.4109 15.0875L32.4109 8.08746C31.6297 7.30621 30.3609 7.30621 29.5797 8.08746L29.5859 8.08121ZM10.4172 8.08121C9.63594 7.29996 8.36719 7.29996 7.58594 8.08121L0.585938 15.0812C-0.195312 15.8625 -0.195312 17.1312 0.585938 17.9125L7.58594 24.9125C8.36719 25.6937 9.63594 25.6937 10.4172 24.9125C11.1984 24.1312 11.1984 22.8625 10.4172 22.0812L4.82969 16.5L10.4172 10.9125C11.1984 10.1312 11.1984 8.86246 10.4172 8.08121Z"/>
</svg>
