<svg width="181" height="187" viewBox="0 0 181 187" fill="none" xmlns="http://www.w3.org/2000/svg">
<rect x="0.498535" y="0.498535" width="180.17" height="186.119" rx="33.9943" fill="black"/>
<path d="M60.9661 132.348C49.9465 132.213 47.167 128.296 44.4904 124.048C42.4972 120.885 40.0679 114.951 40.0051 109.5C41.1677 105.66 48.7762 108.402 49.1062 110.286C49.1062 116.864 53.2361 124.212 61.0152 124.212C71.6646 124.019 76.0272 114.736 88.8936 104.33C111.323 82.2957 116.194 83.7554 124.501 83.669C129.67 83.6153 133.355 87.4071 136.196 90.5669C142.229 96.1836 137.348 113.99 125.351 116.561C134.037 94.8021 129.459 91.6155 121.578 91.6155C118.101 91.6155 105.139 102.077 94.1063 112.246C74.1224 130.667 71.4458 132.466 60.9661 132.348Z" fill="white"/>
<path fill-rule="evenodd" clip-rule="evenodd" d="M69.2308 52.9614C69.2308 52.9614 75.0921 51.8077 79.0385 53.1537C83.1592 54.5593 88.0694 57.5203 88.2692 67.9614C88.2889 70.6537 88.1086 73.3461 85.9615 76.0384L108.269 76.2307C106.833 80.8321 99.7047 82.5884 96.7308 82.5768L81.5385 82.1922C78.9232 85.7692 73.747 89.3056 69.0385 91.423C65.0225 92.3463 61.0503 93.4448 56.5385 92.3845C58.8157 92.9033 59.7699 95.076 60 98.1538C53.4013 98.7995 48.9778 105.031 49.0385 111.423L40 111.038C39.9207 108.026 39.8469 105.013 40.7692 102C42.8758 97.7586 45.7139 95.2797 50.3846 94.1153L38.4615 81.8076C35.8592 78.8206 40.667 74.59 43.6538 77.1922C47.818 80.5909 50.8535 82.6308 56.9231 85.0768C63.8999 86.736 66.162 85.8161 70.3846 81.0384C66.4383 78.304 60.4819 72.3347 55.3846 67.9614C51.6348 64.4243 55.6098 58.8538 61.1538 62.9614C60.6114 63.1423 73.6265 74.8822 76.7308 75.2691C78.2745 74.377 79.1179 72.7845 80.1923 71.423C84.4833 63.1182 75.9318 58.0003 69.2308 52.9614Z" fill="white"/>
</svg>
