<svg width="25" height="30" viewBox="0 0 31 36" fill="none" xmlns="http://www.w3.org/2000/svg">
<path id="Vector" d="M0 7.19063C0 3.58338 2.91744 0.656738 6.51336 0.656738H13.0267V13.636C13.0267 14.5481 14.0784 15.0585 14.7908 14.4868L18.4545 11.5466L22.1183 14.4868C22.8307 15.0585 23.8823 14.5481 23.8823 13.636V0.656738H26.0534H28.2246C29.4255 0.656738 30.3957 1.63002 30.3957 2.8347V24.6143C30.3957 25.819 29.4255 26.7923 28.2246 26.7923V31.1482C29.4255 31.1482 30.3957 32.1215 30.3957 33.3262C30.3957 34.5309 29.4255 35.5042 28.2246 35.5042H26.0534H6.51336C2.91744 35.5042 0 32.5775 0 28.9703V7.19063ZM4.34224 28.9703C4.34224 30.175 5.31246 31.1482 6.51336 31.1482H23.8823V26.7923H6.51336C5.31246 26.7923 4.34224 27.7656 4.34224 28.9703Z" fill="black"/>
</svg>
