<svg width="53" height="60" viewBox="0 0 53 60" xmlns="http://www.w3.org/2000/svg">
<g id="Linkedin" clip-path="url(#clip0_2_23)">
<path id="Vector" d="M49.125 3.75H4.11328C2.05078 3.75 0.375 5.44922 0.375 7.53516V52.4648C0.375 54.5508 2.05078 56.25 4.11328 56.25H49.125C51.1875 56.25 52.875 54.5508 52.875 52.4648V7.53516C52.875 5.44922 51.1875 3.75 49.125 3.75ZM16.2422 48.75H8.46094V23.6953H16.2539V48.75H16.2422ZM12.3516 20.2734C9.85547 20.2734 7.83984 18.2461 7.83984 15.7617C7.83984 13.2773 9.85547 11.25 12.3516 11.25C14.8359 11.25 16.8633 13.2773 16.8633 15.7617C16.8633 18.2578 14.8477 20.2734 12.3516 20.2734ZM45.4102 48.75H37.6289V36.5625C37.6289 33.6563 37.5703 29.918 33.5859 29.918C29.5312 29.918 28.9102 33.082 28.9102 36.3516V48.75H21.1289V23.6953H28.5938V27.1172H28.6992C29.7422 25.1484 32.2852 23.0742 36.0703 23.0742C43.9453 23.0742 45.4102 28.2656 45.4102 35.0156V48.75Z"/>
</g>
<defs>
<clipPath id="clip0_2_23">
<rect width="52.5" height="60" transform="translate(0.375)"/>
</clipPath>
</defs>
</svg>
