<svg width="28" height="29" viewBox="0 0 38 50" xmlns="http://www.w3.org/2000/svg">
<path id="Vector" d="M37.5 18.7986C37.5 20.8396 36.8135 23.3237 35.671 26.03C34.532 28.7281 32.957 31.6074 31.2188 34.427C27.7429 40.0656 23.638 45.4272 21.1317 48.5637C20.1277 49.812 18.2755 49.8121 17.2713 48.5641C14.7651 45.4276 10.66 40.0658 7.18392 34.427C5.44571 31.6074 3.87077 28.7281 2.73177 26.03C1.58927 23.3237 0.90274 20.8396 0.90274 18.7986C0.90274 8.69637 9.0991 0.5 19.2014 0.5C29.3036 0.5 37.5 8.69637 37.5 18.7986ZM23.9858 14.0142C22.7169 12.7453 20.9959 12.0324 19.2014 12.0324C17.4069 12.0324 15.6859 12.7453 14.4169 14.0142C13.148 15.2831 12.4352 17.0041 12.4352 18.7986C12.4352 20.5932 13.148 22.3142 14.4169 23.5831C15.6859 24.852 17.4069 25.5649 19.2014 25.5649C20.9959 25.5649 22.7169 24.852 23.9858 23.5831C25.2547 22.3142 25.9676 20.5932 25.9676 18.7986C25.9676 17.0041 25.2547 15.2831 23.9858 14.0142Z" stroke="white"/>
</svg>
