<svg width="61" height="60" viewBox="0 0 61 60" xmlns="http://www.w3.org/2000/svg">
<g id="Mail" clip-path="url(#clip0_2_25)">
<path id="Vector" d="M6 7.5C2.89453 7.5 0.375 10.0195 0.375 13.125C0.375 14.8945 1.20703 16.5586 2.625 17.625L28.125 36.75C29.4609 37.7461 31.2891 37.7461 32.625 36.75L58.125 17.625C59.543 16.5586 60.375 14.8945 60.375 13.125C60.375 10.0195 57.8555 7.5 54.75 7.5H6ZM0.375 20.625V45C0.375 49.1367 3.73828 52.5 7.875 52.5H52.875C57.0117 52.5 60.375 49.1367 60.375 45V20.625L34.875 39.75C32.2031 41.7539 28.5469 41.7539 25.875 39.75L0.375 20.625Z" />
</g>
<defs>
<clipPath id="clip0_2_25">
<rect width="60" height="60" transform="translate(0.375)"/>
</clipPath>
</defs>
</svg>
