<svg width="41" height="40" viewBox="0 0 41 40" xmlns="http://www.w3.org/2000/svg">
<path id="Vector" d="M13.285 1.92355C12.6835 0.470491 11.0976 -0.302913 9.58203 0.111132L2.70733 1.98605C1.34801 2.36103 0.40274 3.59535 0.40274 5.00154C0.40274 24.3288 16.0739 40 35.4012 40C36.8074 40 38.0417 39.0547 38.4167 37.6954L40.2916 30.8207C40.7057 29.3052 39.9323 27.7193 38.4792 27.1178L30.9795 23.9929C29.7061 23.4617 28.2296 23.8288 27.3625 24.8991L24.2064 28.7505C18.7066 26.149 14.2537 21.6961 11.6522 16.1964L15.5036 13.0481C16.5739 12.1731 16.9411 10.7044 16.4099 9.43103L13.285 1.93136V1.92355Z" />
</svg>
