<svg width="25" height="30" viewBox="0 0 31 36" xmlns="http://www.w3.org/2000/svg">
<path id="Vector" d="M15.2469 18.0817C17.5576 18.0817 19.7736 17.1638 21.4075 15.5299C23.0415 13.896 23.9594 11.6799 23.9594 9.36924C23.9594 7.05854 23.0415 4.84248 21.4075 3.20857C19.7736 1.57466 17.5576 0.656738 15.2469 0.656738C12.9362 0.656738 10.7201 1.57466 9.08621 3.20857C7.4523 4.84248 6.53437 7.05854 6.53437 9.36924C6.53437 11.6799 7.4523 13.896 9.08621 15.5299C10.7201 17.1638 12.9362 18.0817 15.2469 18.0817ZM12.1362 21.3489C5.4317 21.3489 0 26.7806 0 33.4852C0 34.6015 0.905283 35.5067 2.02157 35.5067H28.4722C29.5885 35.5067 30.4937 34.6015 30.4937 33.4852C30.4937 26.7806 25.062 21.3489 18.3575 21.3489H12.1362Z"/>
</svg>
