<svg width="33" height="33" viewBox="0 0 33 33" xmlns="http://www.w3.org/2000/svg">
<path id="Vector" d="M31.8293 12.5354C31.2793 10.3283 30.2365 8.6641 28.0151 8.6641H25.1509V12.0497C25.1509 14.6782 22.9225 16.8924 20.3797 16.8924H12.7514C10.6657 16.8924 8.93721 18.678 8.93721 20.7708V28.042C8.93721 30.1134 10.7371 31.3276 12.7514 31.9204C15.1656 32.6276 17.4869 32.7561 20.3797 31.9204C22.301 31.3633 24.1938 30.2419 24.1938 28.042V25.135H16.5727V24.1636H28.0151C30.2365 24.1636 31.0579 22.6136 31.8293 20.2923C32.6293 17.8995 32.5936 15.5996 31.8293 12.5354ZM20.8582 27.0706C21.6511 27.0706 22.2939 27.7206 22.2939 28.5206C22.2939 29.3277 21.6511 29.9777 20.8582 29.9777C20.0725 29.9777 19.4226 29.3205 19.4226 28.5206C19.4297 27.7134 20.0725 27.0706 20.8582 27.0706ZM12.4014 15.9353H20.0297C22.151 15.9353 23.8438 14.1853 23.8438 12.0568V4.77852C23.8438 2.70716 22.1011 1.15721 20.0297 0.807225C17.4726 0.38581 14.6942 0.407238 12.4014 0.814367C9.17292 1.38578 8.58722 2.57859 8.58722 4.78566V7.6927H16.2227V8.6641H5.72303C3.50168 8.6641 1.55889 9.99977 0.951765 12.5354C0.251789 15.4424 0.223219 17.2567 0.951765 20.2923C1.4946 22.5493 2.78742 24.1636 5.00877 24.1636H7.63011V20.678C7.63011 18.1566 9.80861 15.9353 12.4014 15.9353ZM11.9228 5.74991C11.13 5.74991 10.4872 5.09994 10.4872 4.29996C10.4943 3.49285 11.13 2.84287 11.9228 2.84287C12.7085 2.84287 13.3585 3.49999 13.3585 4.29996C13.3585 5.09994 12.7157 5.74991 11.9228 5.74991Z"/>
</svg>
