<svg width="32" height="33" viewBox="0 0 32 33" xmlns="http://www.w3.org/2000/svg">
<path id="Vector" d="M4.57155 0.5C2.05012 0.5 0.00012207 2.55 0.00012207 5.07143V27.9286C0.00012207 30.45 2.05012 32.5 4.57155 32.5H27.4287C29.9501 32.5 32.0001 30.45 32.0001 27.9286V10.5929C32.0001 9.37857 31.5216 8.21429 30.6644 7.35714L25.143 1.83571C24.2858 0.978572 23.1216 0.5 21.9073 0.5H4.57155ZM4.57155 7.35714C4.57155 6.09286 5.59298 5.07143 6.85727 5.07143H20.5716C21.8358 5.07143 22.8573 6.09286 22.8573 7.35714V11.9286C22.8573 13.1929 21.8358 14.2143 20.5716 14.2143H6.85727C5.59298 14.2143 4.57155 13.1929 4.57155 11.9286V7.35714ZM16.0001 18.7857C17.2125 18.7857 18.3753 19.2673 19.2326 20.1247C20.0899 20.982 20.5716 22.1447 20.5716 23.3571C20.5716 24.5696 20.0899 25.7323 19.2326 26.5896C18.3753 27.4469 17.2125 27.9286 16.0001 27.9286C14.7877 27.9286 13.6249 27.4469 12.7676 26.5896C11.9103 25.7323 11.4287 24.5696 11.4287 23.3571C11.4287 22.1447 11.9103 20.982 12.7676 20.1247C13.6249 19.2673 14.7877 18.7857 16.0001 18.7857Z"/>
</svg>
