<svg width="29" height="33" viewBox="0 0 29 33" xmlns="http://www.w3.org/2000/svg">
<path id="Vector" d="M15.9396 6.22517L20.9466 9.149C21.1266 9.25163 21.1332 9.53644 20.9466 9.63906L14.9971 13.1159C14.8171 13.2219 14.6044 13.2153 14.4375 13.1159L8.48801 9.63906C8.30476 9.53975 8.30151 9.24831 8.48801 9.149L13.4918 6.22517V0.5L0.715698 7.96356V22.8908L5.61472 20.0298V14.1821C5.61144 13.9735 5.85361 13.8245 6.0336 13.9371L11.9831 17.4139C12.1631 17.5199 12.2646 17.7086 12.2646 17.904V24.8543C12.2678 25.0629 12.0256 25.2119 11.8456 25.0993L6.83865 22.1755L1.93964 25.0364L14.7157 32.5L27.4918 25.0364L22.5928 22.1755L17.5858 25.0993C17.409 25.2086 17.1603 25.0662 17.1668 24.8543V17.904C17.1668 17.6954 17.2814 17.5099 17.4483 17.4139L23.3978 13.9371C23.5745 13.8278 23.8232 13.9669 23.8167 14.1821V20.0298L28.7157 22.8908V7.96356L15.9396 0.5V6.22517Z" />
</svg>
